<svg id="svg" version="1.1" width="400" height="400" viewBox="0 0 400 400" xmlns="http://www.w3.org/2000/svg">
  <g id="svgg">
    <path id="path0" d="M187.800 0.399 C 68.705 8.216,-17.033 116.499,2.835 234.000 C 19.846 334.600,111.584 406.762,213.400 399.631 C 332.031 391.323,416.845 283.683,397.172 166.400 C 380.415 66.504,288.687 -6.223,187.800 0.399 M235.493 32.786 C 241.728 35.616,250.644 51.029,255.343 67.100 C 256.124 69.773,255.963 69.740,254.362 66.900 C 243.176 47.053,230.589 45.402,214.916 61.727 C 211.870 64.899,206.583 71.613,204.942 74.391 C 203.440 76.933,203.703 75.376,205.810 69.243 C 215.006 42.474,226.294 28.610,235.493 32.786 M100.688 40.443 C 107.843 43.906,115.045 56.800,120.397 75.730 C 121.319 78.991,121.999 81.735,121.907 81.826 C 121.816 81.918,120.324 79.879,118.593 77.296 C 104.579 56.391,91.483 54.606,73.530 71.155 L 70.860 73.616 71.843 70.415 C 78.715 48.037,90.684 35.600,100.688 40.443 M107.290 85.972 C 132.969 95.819,131.360 162.698,104.807 189.200 C 80.387 213.574,57.161 182.190,65.230 135.722 C 71.003 102.478,90.425 79.505,107.290 85.972 M100.307 88.690 C 101.026 88.779,102.106 88.777,102.707 88.686 C 103.308 88.595,102.720 88.522,101.400 88.524 C 100.080 88.526,99.588 88.601,100.307 88.690 M111.400 93.200 C 112.259 94.080,113.052 94.800,113.162 94.800 C 113.272 94.800,112.659 94.080,111.800 93.200 C 110.941 92.320,110.148 91.600,110.038 91.600 C 109.928 91.600,110.541 92.320,111.400 93.200 M86.981 95.700 L 85.400 97.400 87.100 95.819 C 88.035 94.949,88.800 94.184,88.800 94.119 C 88.800 93.816,88.452 94.119,86.981 95.700 M256.400 112.016 C 271.306 114.369,270.919 126.718,255.491 140.998 C 252.202 144.042,243.857 150.700,241.466 152.188 C 239.967 153.120,239.924 153.187,243.739 148.608 C 253.742 136.597,255.837 128.960,249.758 126.659 C 238.251 122.302,222.796 124.243,199.200 133.007 C 181.258 139.670,165.109 150.213,150.300 164.930 C 145.772 169.430,145.554 169.376,148.729 164.544 C 159.008 148.899,172.647 137.688,195.035 126.480 C 217.099 115.434,241.546 109.672,256.400 112.016 M75.665 113.017 C 74.995 114.488,75.123 114.802,75.847 113.465 C 76.186 112.840,76.388 112.254,76.296 112.163 C 76.205 112.071,75.921 112.456,75.665 113.017 M104.200 117.159 C 103.320 117.567,101.880 118.559,101.000 119.365 L 99.400 120.830 101.537 119.267 C 107.627 114.813,113.204 116.447,117.061 123.814 C 117.677 124.990,118.242 125.891,118.317 125.816 C 118.646 125.488,116.207 121.373,114.742 119.784 C 111.749 116.536,107.713 115.531,104.200 117.159 M121.701 121.800 C 121.705 122.680,121.787 122.993,121.883 122.495 C 121.979 121.998,121.975 121.278,121.875 120.895 C 121.775 120.513,121.696 120.920,121.701 121.800 M98.265 122.500 C 91.152 131.979,91.132 151.153,98.229 159.000 L 99.676 160.600 98.490 159.000 C 91.801 149.972,91.659 133.189,98.188 123.274 C 99.716 120.955,99.760 120.508,98.265 122.500 M120.142 137.400 C 120.141 139.380,120.208 140.240,120.292 139.312 C 120.376 138.384,120.377 136.764,120.295 135.712 C 120.212 134.660,120.143 135.420,120.142 137.400 M121.701 135.400 C 121.705 136.280,121.787 136.593,121.883 136.095 C 121.979 135.598,121.975 134.878,121.875 134.495 C 121.775 134.113,121.696 134.520,121.701 135.400 M67.693 144.400 C 67.693 145.170,67.775 145.485,67.876 145.100 C 67.976 144.715,67.976 144.085,67.876 143.700 C 67.775 143.315,67.693 143.630,67.693 144.400 M67.360 153.800 C 67.361 157.100,67.422 158.397,67.498 156.682 C 67.573 154.967,67.572 152.267,67.497 150.682 C 67.421 149.097,67.359 150.500,67.360 153.800 M117.862 150.091 C 116.692 153.464,114.204 157.333,111.781 159.548 C 109.219 161.890,109.116 162.210,111.544 160.289 C 114.508 157.943,119.274 150.023,118.721 148.362 C 118.651 148.153,118.265 148.931,117.862 150.091 M328.191 150.100 L 329.227 151.000 324.992 160.200 C 322.662 165.260,319.158 172.820,317.206 177.000 C 315.253 181.180,312.181 187.840,310.378 191.800 C 308.574 195.760,304.674 204.310,301.710 210.800 C 285.348 246.624,270.009 280.924,262.802 297.800 C 237.838 356.260,224.403 374.686,201.000 382.565 C 179.910 389.665,158.540 381.888,127.068 355.660 C 94.197 328.267,72.311 299.247,59.298 265.800 C 53.050 249.739,45.200 221.302,45.200 214.727 C 45.200 214.251,45.328 214.286,50.000 216.014 C 97.412 233.549,160.832 233.549,212.098 216.012 C 247.025 204.066,291.801 178.260,322.400 152.442 C 326.629 148.874,326.732 148.832,328.191 150.100 M100.988 161.389 C 102.751 162.794,107.087 163.120,108.800 161.976 C 109.224 161.693,109.049 161.667,108.200 161.888 C 106.250 162.395,103.103 162.185,101.600 161.448 C 100.476 160.897,100.355 160.885,100.988 161.389 M67.693 162.800 C 67.693 163.570,67.775 163.885,67.876 163.500 C 67.976 163.115,67.976 162.485,67.876 162.100 C 67.775 161.715,67.693 162.030,67.693 162.800 M114.465 166.617 C 113.795 168.088,113.923 168.402,114.647 167.065 C 114.986 166.440,115.188 165.854,115.096 165.763 C 115.005 165.671,114.721 166.056,114.465 166.617 M105.775 182.268 C 105.159 183.076,104.859 183.611,105.109 183.456 C 105.621 183.140,107.353 180.800,107.075 180.800 C 106.976 180.800,106.391 181.461,105.775 182.268 M101.988 186.700 L 99.400 189.400 102.100 186.812 C 103.585 185.388,104.800 184.173,104.800 184.112 C 104.800 183.817,104.393 184.192,101.988 186.700 M94.800 192.000 C 94.030 192.422,93.544 192.774,93.720 192.783 C 94.144 192.805,96.400 191.632,96.400 191.390 C 96.400 191.128,96.377 191.137,94.800 192.000 M87.107 193.890 C 87.826 193.979,88.906 193.977,89.507 193.886 C 90.108 193.795,89.520 193.722,88.200 193.724 C 86.880 193.726,86.388 193.801,87.107 193.890 " stroke="none" fill="#90e289" fill-rule="evenodd"></path>
    <path id="path1" d="M228.070 32.999 C 220.683 36.438,212.505 49.753,205.810 69.243 C 203.703 75.376,203.440 76.933,204.942 74.391 C 206.583 71.613,211.870 64.899,214.916 61.727 C 230.589 45.402,243.176 47.053,254.362 66.900 C 256.659 70.974,256.082 68.560,252.524 59.200 C 244.362 37.731,236.349 29.145,228.070 32.999 M91.905 40.206 C 84.527 42.916,76.642 54.789,71.843 70.415 L 70.860 73.616 73.530 71.155 C 91.483 54.606,104.579 56.391,118.593 77.296 C 120.324 79.879,121.816 81.918,121.907 81.826 C 122.177 81.556,118.857 70.175,117.116 65.400 C 109.830 45.424,101.194 36.794,91.905 40.206 M96.850 85.408 C 66.849 93.804,51.764 166.897,74.957 191.489 C 91.326 208.846,115.870 187.837,123.598 149.852 C 131.219 112.396,117.606 79.599,96.850 85.408 M106.993 89.745 C 124.314 97.675,127.344 141.588,112.627 171.400 C 97.654 201.729,75.878 201.430,68.981 170.800 C 60.231 131.945,84.789 79.580,106.993 89.745 M242.000 111.885 C 223.509 113.378,197.873 123.169,177.000 136.711 C 165.541 144.145,155.887 153.649,148.729 164.544 C 145.554 169.376,145.772 169.430,150.300 164.930 C 165.109 150.213,181.258 139.670,199.200 133.007 C 222.796 124.243,238.251 122.302,249.758 126.659 C 255.837 128.960,253.742 136.597,243.739 148.608 C 239.924 153.187,239.967 153.120,241.466 152.188 C 254.634 143.996,266.645 130.289,267.118 122.913 C 267.706 113.759,260.107 110.423,242.000 111.885 M104.926 117.330 C 94.752 121.082,89.824 142.567,96.226 155.262 C 104.082 170.838,120.028 158.764,119.993 137.265 C 119.971 123.762,112.891 114.394,104.926 117.330 M322.400 152.442 C 291.801 178.260,247.025 204.066,212.098 216.012 C 160.832 233.549,97.412 233.549,50.000 216.014 C 45.328 214.286,45.200 214.251,45.200 214.727 C 45.200 221.302,53.050 249.739,59.298 265.800 C 72.311 299.247,94.197 328.267,127.068 355.660 C 158.540 381.888,179.910 389.665,201.000 382.565 C 224.403 374.686,237.838 356.260,262.802 297.800 C 270.009 280.924,285.348 246.624,301.710 210.800 C 304.674 204.310,308.574 195.760,310.378 191.800 C 312.181 187.840,315.253 181.180,317.206 177.000 C 319.158 172.820,322.662 165.260,324.992 160.200 L 329.227 151.000 328.191 150.100 C 326.732 148.832,326.629 148.874,322.400 152.442 M248.988 282.819 C 260.058 284.419,262.263 290.109,256.731 302.800 C 235.308 351.944,222.453 369.926,203.102 377.815 C 185.504 384.989,170.702 381.980,147.267 366.464 C 135.090 358.402,133.756 353.685,140.068 341.000 C 147.818 325.421,165.614 308.137,182.644 299.648 C 194.917 293.530,202.046 296.546,199.455 306.760 C 199.126 308.059,199.251 307.981,202.255 305.014 C 220.316 287.179,234.044 280.659,248.988 282.819 " stroke="none" fill="#1c2924" fill-rule="evenodd"></path>
    <path id="bg-corners" d="M0.074 95.300 C 0.115 147.715,0.205 189.610,0.274 188.400 C 6.037 87.837,87.243 6.439,187.800 0.430 C 190.660 0.259,149.575 0.092,96.500 0.059 L 0.000 0.000 0.074 95.300 M212.200 0.430 C 312.757 6.439,393.963 87.838,399.726 188.400 C 399.795 189.610,399.885 147.715,399.926 95.300 L 400.000 0.000 303.500 0.059 C 250.425 0.092,209.340 0.259,212.200 0.430 M0.074 304.900 L 0.000 400.000 94.700 399.933 C 146.785 399.896,188.680 399.808,187.800 399.738 C 172.074 398.487,162.014 396.930,150.400 393.948 C 66.257 372.344,5.224 298.374,0.274 212.000 C 0.205 210.790,0.115 252.595,0.074 304.900 M399.600 212.396 C 399.600 219.503,397.050 236.658,394.381 247.501 C 373.626 331.832,301.307 393.135,215.000 399.560 C 212.537 399.743,252.283 399.912,305.300 399.944 L 400.000 400.000 400.000 305.000 C 400.000 252.750,399.910 210.000,399.800 210.000 C 399.690 210.000,399.600 211.078,399.600 212.396" fill="#525252"></path>
    <path id="eye-white" d="M96.110 89.645 C 78.685 96.343,64.752 132.666,67.952 163.052 C 72.321 204.545,102.223 203.284,116.603 161.000 C 129.463 123.186,117.472 81.434,96.110 89.645 M111.441 117.220 C 124.102 123.349,122.712 154.753,109.472 161.688 C 103.168 164.990,96.144 159.733,93.808 149.965 C 89.533 132.093,100.417 111.883,111.441 117.220" fill="#fbfbfb"></path>
    <path id="path3" d="M238.000 282.810 C 228.144 283.966,215.815 291.624,202.255 305.014 C 199.251 307.981,199.126 308.059,199.455 306.760 C 202.046 296.546,194.917 293.530,182.644 299.648 C 156.206 312.827,131.293 344.852,137.623 357.520 C 140.515 363.306,158.589 374.839,171.547 379.165 C 191.936 385.973,212.654 377.812,228.464 356.745 C 238.689 343.121,259.810 300.107,259.765 293.000 C 259.713 284.832,251.911 281.179,238.000 282.810 " stroke="none" fill="#d93c4b" fill-rule="evenodd"></path>
  </g>
</svg>
